<?xml version="1.0" standalone="no"?>
<!DOCTYPE svg PUBLIC "-//W3C//DTD SVG 20010904//EN"
 "http://www.w3.org/TR/2001/REC-SVG-20010904/DTD/svg10.dtd">
<svg version="1.0" xmlns="http://www.w3.org/2000/svg"
 width="905.000000pt" height="886.000000pt" viewBox="0 0 905.000000 886.000000"
 preserveAspectRatio="xMidYMid meet">

<g transform="translate(0.000000,886.000000) scale(0.100000,-0.100000)"
fill="#000000" stroke="none">
<path d="M3503 6093 c-45 -9 -281 -338 -259 -360 3 -4 39 4 79 16 39 13 85 27
101 32 50 16 205 10 283 -10 79 -21 189 -69 231 -101 56 -43 153 -145 176
-185 13 -22 37 -79 52 -125 25 -75 28 -98 26 -194 -1 -61 -9 -131 -17 -159
-19 -64 -19 -77 0 -77 23 0 52 55 85 160 98 315 49 602 -138 797 -87 92 -177
148 -292 182 -65 19 -273 35 -327 24z"/>
<path d="M5155 6082 c-78 -6 -187 -33 -238 -59 -48 -24 -66 -36 -140 -95 -43
-35 -113 -164 -136 -250 -31 -116 -29 -286 4 -415 14 -54 31 -107 38 -118 7
-11 21 -42 32 -70 10 -27 43 -102 73 -165 127 -268 163 -448 127 -637 -18 -92
-69 -244 -100 -293 -12 -19 -26 -46 -30 -60 -4 -14 -18 -43 -31 -66 -13 -22
-24 -46 -24 -52 0 -6 -13 -39 -28 -74 -72 -158 -85 -227 -80 -426 4 -138 8
-167 32 -239 15 -46 30 -83 34 -83 4 0 15 -20 25 -45 11 -26 46 -72 87 -113
120 -119 279 -179 496 -189 l121 -6 26 29 c66 76 147 180 147 190 0 6 7 17 16
25 8 7 27 35 41 62 l25 50 -24 -7 c-144 -42 -326 -53 -448 -27 -80 17 -187 67
-260 121 -54 41 -109 97 -110 113 0 5 -13 27 -28 50 -37 54 -57 107 -70 187
-16 93 -20 168 -10 220 5 25 10 56 13 68 5 29 33 116 50 157 7 17 20 50 30 75
10 25 35 79 55 120 128 256 128 446 3 710 -159 333 -190 496 -128 683 50 153
158 264 320 330 78 31 84 32 230 32 144 0 235 -11 315 -40 19 -6 75 -25 125
-41 99 -32 116 -40 225 -104 60 -35 228 -156 250 -180 3 -3 38 -35 79 -70 148
-130 201 -180 315 -303 54 -59 111 -122 125 -141 23 -30 132 -152 215 -241 45
-48 117 -162 137 -218 23 -62 25 -153 5 -219 -40 -131 -345 -496 -618 -738
-40 -36 -103 -95 -140 -131 -60 -58 -68 -70 -68 -103 0 -51 -37 -191 -66 -249
-38 -77 -31 -95 22 -55 66 50 218 174 257 210 23 21 46 38 51 38 15 0 390 371
435 430 14 19 39 46 56 60 16 14 38 36 50 49 11 14 47 55 80 92 140 156 213
252 271 359 27 50 27 220 0 270 -34 63 -109 174 -151 221 -398 454 -611 670
-914 925 -210 177 -418 299 -618 363 -33 11 -69 24 -80 29 -56 30 -373 64
-498 54z"/>
<path d="M2693 5732 c-220 -143 -628 -524 -878 -820 -16 -20 -64 -75 -105
-123 -107 -124 -185 -235 -209 -299 -28 -73 -29 -191 -2 -252 25 -58 128 -212
182 -272 261 -292 586 -626 754 -778 130 -117 460 -358 491 -358 3 0 24 -13
47 -28 69 -46 150 -80 305 -126 203 -60 337 -74 491 -52 62 10 120 21 129 26
10 4 53 23 97 41 67 28 92 46 155 109 85 85 121 156 146 287 30 159 3 368 -64
500 -12 23 -22 47 -22 53 0 6 -25 63 -56 128 -65 134 -97 215 -127 322 -18 62
-21 102 -21 225 0 140 2 155 28 220 37 94 43 119 25 113 -31 -10 -76 -125
-105 -268 -16 -80 -16 -90 1 -184 9 -55 21 -107 25 -115 4 -9 16 -36 26 -61 9
-25 37 -87 61 -138 23 -51 43 -98 43 -105 0 -7 4 -17 8 -23 31 -35 74 -213 74
-309 1 -172 -70 -326 -194 -422 -130 -100 -314 -134 -528 -98 -195 32 -290 63
-465 151 -155 77 -355 227 -510 380 -138 137 -480 515 -545 603 -101 136 -114
169 -118 287 -4 119 6 149 95 278 55 79 78 107 189 226 33 36 82 90 110 119
101 112 231 239 293 286 35 26 77 62 93 79 30 32 67 122 68 165 0 26 21 102
51 189 30 83 27 87 -38 44z"/>
</g>
</svg>
