<?xml version="1.0" standalone="no"?>
<!DOCTYPE svg PUBLIC "-//W3C//DTD SVG 20010904//EN"
 "http://www.w3.org/TR/2001/REC-SVG-20010904/DTD/svg10.dtd">
<svg version="1.0" xmlns="http://www.w3.org/2000/svg"
 width="2480.000000pt" height="2393.000000pt" viewBox="0 0 2480.000000 2393.000000"
 preserveAspectRatio="xMidYMid meet">

<g transform="translate(0.000000,2393.000000) scale(0.100000,-0.100000)"
fill="#000000" stroke="none">
<path d="M11865 22629 c-2689 -111 -5230 -1241 -7115 -3166 -1133 -1156 -1977
-2535 -2486 -4058 -295 -885 -459 -1740 -526 -2735 -26 -401 -14 -1118 28
-1580 196 -2180 1073 -4255 2505 -5922 824 -960 1810 -1764 2918 -2378 1101
-610 2318 -1021 3566 -1204 1325 -194 2684 -138 3980 165 1591 372 3089 1120
4352 2172 1950 1626 3260 3906 3667 6387 101 614 140 1098 140 1745 0 525 -19
848 -80 1335 -199 1604 -782 3167 -1684 4521 -1170 1757 -2835 3125 -4780
3929 -1405 582 -2947 853 -4485 789z m1060 -109 c247 -16 491 -39 710 -66
2991 -376 5674 -2031 7377 -4549 1399 -2068 2006 -4580 1713 -7085 -272 -2327
-1326 -4499 -2995 -6170 -1744 -1745 -4020 -2813 -6470 -3034 -604 -55 -1296
-55 -1900 0 -2450 221 -4726 1289 -6470 3034 -1343 1345 -2286 3004 -2748
4835 -357 1411 -415 2873 -172 4325 439 2625 1897 5016 4040 6624 1128 846
2364 1439 3715 1781 738 187 1459 289 2270 319 154 6 762 -3 930 -14z"/>
<path d="M11855 19779 c-1514 -89 -2954 -615 -4179 -1527 -378 -282 -800 -667
-1115 -1017 -1640 -1826 -2314 -4264 -1845 -6680 240 -1240 817 -2455 1627
-3428 317 -381 707 -768 1087 -1078 704 -574 1530 -1030 2403 -1325 1599 -540
3355 -540 4954 0 1006 340 1909 870 2708 1587 164 147 499 487 636 644 968
1113 1579 2407 1818 3850 110 665 130 1411 56 2090 -140 1272 -587 2482 -1303
3525 -480 698 -1091 1335 -1758 1832 -1236 920 -2665 1439 -4208 1528 -204 11
-674 11 -881 -1z m1085 -113 c1687 -152 3165 -783 4435 -1895 154 -135 521
-502 656 -656 690 -788 1192 -1652 1514 -2607 257 -758 383 -1485 401 -2303
20 -855 -109 -1717 -377 -2532 -458 -1393 -1291 -2600 -2454 -3554 -317 -260
-781 -570 -1170 -781 -2083 -1131 -4619 -1222 -6780 -243 -1084 491 -2020
1215 -2796 2160 -340 414 -699 979 -940 1481 -1238 2571 -944 5616 762 7889
367 490 807 949 1284 1342 347 285 794 585 1200 805 940 511 2013 824 3075
898 85 6 178 12 205 14 128 9 822 -4 985 -18z"/>
<path d="M13583 17550 c-199 -52 -409 -175 -668 -391 -146 -123 -467 -441
-710 -705 -235 -255 -295 -312 -436 -419 -230 -173 -494 -287 -758 -325 -118
-18 -324 -8 -430 19 -228 60 -401 191 -491 373 -54 111 -73 205 -67 333 6 121
21 177 94 360 53 132 57 145 57 227 1 86 1 87 -34 123 -48 49 -120 70 -220 62
-86 -7 -130 -21 -241 -76 -172 -86 -357 -243 -449 -380 -113 -169 -160 -319
-167 -536 -8 -237 32 -412 143 -625 73 -141 159 -253 286 -376 334 -321 811
-489 1338 -471 269 10 480 64 728 187 240 119 440 266 657 484 217 217 364
404 576 732 324 500 559 796 796 1004 140 123 180 165 208 221 33 65 40 110
21 147 -28 54 -106 65 -233 32z"/>
<path d="M14607 17409 c-101 -24 -406 -210 -612 -373 -289 -229 -570 -512
-767 -771 -251 -332 -448 -760 -473 -1027 -14 -158 36 -308 134 -402 150 -142
348 -168 665 -86 134 34 245 75 511 187 264 112 379 155 500 186 207 54 392
59 545 17 166 -47 366 -171 541 -338 93 -89 145 -122 189 -122 38 0 79 30 102
73 21 38 23 55 23 187 0 137 -2 150 -32 233 -45 128 -114 237 -213 337 -195
197 -416 280 -747 280 -156 0 -233 -8 -508 -51 -77 -12 -187 -22 -245 -22 -93
-1 -111 2 -161 25 -63 29 -99 70 -123 141 -52 155 37 378 267 672 44 55 202
222 352 370 279 277 315 321 315 390 0 49 -15 74 -55 91 -38 15 -148 17 -208
3z"/>
<path d="M11045 17351 c-175 -50 -326 -194 -384 -366 -121 -361 157 -745 539
-745 255 0 494 189 550 435 19 80 14 220 -9 295 -60 192 -230 350 -419 389
-77 16 -208 12 -277 -8z"/>
<path d="M15203 16935 c-257 -56 -494 -336 -469 -553 17 -143 124 -243 314
-294 111 -29 334 -36 422 -13 354 92 482 475 244 726 -119 124 -317 176 -511
134z"/>
<path d="M8862 15273 c-36 -7 -90 -68 -103 -115 -19 -72 -5 -205 44 -398 182
-715 514 -1350 1033 -1975 128 -154 477 -506 619 -624 137 -114 326 -255 406
-302 210 -125 543 -210 769 -196 291 18 499 168 601 431 117 302 120 861 8
1334 -83 349 -236 705 -407 945 -133 187 -271 174 -297 -28 -5 -32 1 -106 15
-205 58 -414 4 -697 -171 -884 -76 -80 -146 -126 -247 -162 -351 -122 -733 41
-1146 487 -333 360 -649 897 -816 1385 -27 78 -55 155 -63 170 -19 36 -84 102
-118 120 -31 16 -94 24 -127 17z"/>
<path d="M15321 14730 c-80 -19 -130 -83 -181 -233 -148 -433 -443 -873 -727
-1084 -98 -73 -194 -123 -303 -159 -74 -24 -101 -28 -210 -28 -146 -1 -208 16
-327 90 -159 99 -286 243 -533 609 -209 309 -253 366 -347 456 -112 107 -201
144 -291 120 -141 -38 -183 -199 -95 -370 22 -42 75 -146 119 -231 164 -319
250 -600 290 -947 20 -172 14 -590 -10 -753 -71 -467 -288 -762 -641 -873
-172 -54 -367 -58 -546 -13 -49 12 -89 21 -89 20 0 -7 204 -137 270 -173 238
-127 521 -192 850 -194 259 -2 410 34 665 158 258 126 499 308 780 590 332
331 634 726 912 1190 375 625 637 1301 620 1594 -10 164 -92 257 -206 231z"/>
<path d="M10663 14410 c-171 -36 -283 -195 -283 -404 0 -211 111 -402 285
-487 64 -31 77 -34 160 -34 84 0 94 2 153 34 315 171 236 734 -123 873 -53 21
-139 29 -192 18z"/>
<path d="M13880 14397 c-67 -28 -79 -35 -117 -68 -56 -47 -102 -119 -124 -191
-70 -231 76 -465 319 -510 166 -31 348 64 425 221 30 62 32 73 32 172 0 101
-1 108 -38 181 -43 88 -99 143 -186 185 -47 23 -72 27 -156 30 -87 3 -107 1
-155 -20z"/>
<path d="M20046 7435 c-32 -69 -64 -129 -70 -134 -6 -5 -63 -16 -126 -25 -185
-26 -179 -12 -60 -131 l103 -104 -22 -136 c-13 -75 -20 -139 -17 -142 3 -3 61
24 129 60 l123 66 132 -70 c73 -38 132 -68 132 -66 0 1 -11 67 -25 147 l-25
145 107 101 c90 85 104 102 88 107 -11 3 -78 13 -149 23 l-129 17 -64 134
c-35 73 -64 133 -66 133 -1 0 -29 -56 -61 -125z"/>
<path d="M4512 7422 l-61 -129 -133 -18 c-73 -10 -139 -21 -146 -25 -10 -5 19
-37 92 -106 l106 -99 -25 -144 c-15 -79 -25 -144 -23 -146 2 -1 61 28 131 66
l129 68 124 -66 c69 -36 128 -63 131 -60 3 3 -5 67 -18 142 l-23 136 103 103
c85 85 100 105 85 109 -11 3 -76 13 -145 23 l-126 17 -64 128 c-35 71 -66 129
-70 129 -3 0 -33 -58 -67 -128z"/>
</g>
</svg>
